<svg width="757" height="133" viewBox="0 0 757 133" fill="none" xmlns="http://www.w3.org/2000/svg">
<path d="M669.097 25.0616C683.155 55.359 697.214 85.655 711.273 115.951C716.089 126.331 726.49 132.97 737.93 132.97H756.146V127.186C756.53 119.131 751.626 117.19 749.366 117.191C730.53 117.191 729.942 115.631 722.741 100.291C708.487 69.9283 694.235 39.5643 679.981 9.20032C677.561 4.04298 672.377 0.750977 666.681 0.750977H666.179C660.483 0.750977 655.299 4.04298 652.879 9.20032C638.625 39.567 624.371 69.9336 610.118 100.299C605.275 110.618 594.902 117.203 583.505 117.199C571.669 117.195 559.831 117.19 547.995 117.186V132.97H594.933C606.374 132.97 616.775 126.33 621.59 115.951C635.649 85.655 649.706 55.359 663.765 25.0616C664.818 22.7923 668.043 22.7923 669.097 25.0616Z" fill="white"></path>
<path d="M584.741 0.808291H599.175C575.385 25.847 551.597 50.887 527.808 75.9256C527.239 76.5243 527 77.1229 527 77.9496V132.967H508.643V77.9496C508.643 77.1229 508.404 76.5243 507.835 75.9256C484.045 50.887 460.256 25.847 436.467 0.808291H450.901C459.567 0.808291 467.791 4.63362 473.375 11.2603C487.44 27.955 501.507 44.6496 515.573 61.3443C516.747 62.7376 518.893 62.7376 520.068 61.3443C534.135 44.6496 548.201 27.955 562.268 11.259C567.852 4.63362 576.076 0.808291 584.741 0.808291Z" fill="white"></path>
<path d="M375.708 25.0616C361.65 55.359 347.591 85.655 333.532 115.951C328.716 126.331 318.315 132.97 306.875 132.97H268.42V117.186H295.464C306.858 117.186 317.224 110.6 322.067 100.286C336.319 69.9243 350.57 39.5617 364.822 9.20032C367.243 4.04299 372.427 0.750979 378.124 0.750979H378.623C384.319 0.750979 389.503 4.04299 391.924 9.20032C406.176 39.5617 420.428 69.9243 434.68 100.286C439.522 110.6 449.888 117.186 461.282 117.186H488.647V132.97H449.872C438.431 132.97 428.03 126.33 423.215 115.951C409.156 85.655 395.098 55.359 381.04 25.0616C379.987 22.7923 376.762 22.7923 375.708 25.0616Z" fill="white"></path>
<path d="M301.453 1.99067V0.901335H175.053V1.99067C175.053 10.1053 181.632 16.684 189.746 16.684H214.388C222.502 16.684 229.081 23.2627 229.081 31.3787V133.001H247.424V31.3787C247.424 23.2627 254.002 16.684 262.117 16.684H286.76C294.874 16.684 301.453 10.1053 301.453 1.99067Z" fill="white"></path>
<path d="M87.0493 25.0616C72.9907 55.359 58.932 85.655 44.8733 115.951C40.0574 126.331 29.656 132.97 18.216 132.97H0V127.186C0 118.631 4.52001 117.19 6.78001 117.191C23.5298 117.191 25.5298 115.131 33.4054 100.291C47.6587 69.9283 61.9107 39.5643 76.1653 9.20032C78.5853 4.04298 83.7693 0.750977 89.4653 0.750977H89.9667C95.6627 0.750977 100.847 4.04298 103.267 9.20032C117.521 39.567 131.775 69.9336 146.028 100.299C150.871 110.618 161.244 117.203 172.641 117.199C184.477 117.195 196.315 117.19 208.151 117.186V132.97H161.213C149.772 132.97 139.371 126.33 134.556 115.951C120.497 85.655 106.44 55.359 92.3813 25.0616C91.328 22.7923 88.1027 22.7923 87.0493 25.0616Z" fill="white"></path>
</svg>