<svg width="788" height="301" viewBox="0 0 788 301" fill="none" xmlns="http://www.w3.org/2000/svg">
<path d="M116.205 245.118C114.009 246.582 111.02 248.229 107.238 250.059C103.456 251.889 99.003 253.414 93.879 254.634C88.877 255.854 83.387 256.464 77.409 256.464C67.161 256.342 57.889 254.512 49.593 250.974C41.419 247.436 34.465 242.617 28.731 236.517C22.997 230.417 18.544 223.402 15.372 215.472C12.322 207.42 10.797 198.88 10.797 189.852C10.797 179.97 12.383 170.881 15.555 162.585C18.849 154.167 23.424 146.908 29.28 140.808C35.136 134.586 42.029 129.767 49.959 126.351C58.011 122.935 66.795 121.227 76.311 121.227C84.241 121.227 91.439 122.325 97.905 124.521C104.371 126.595 109.922 129.096 114.558 132.024L107.421 148.494C103.761 146.054 99.308 143.736 94.062 141.54C88.938 139.344 83.204 138.246 76.86 138.246C70.394 138.246 64.294 139.527 58.56 142.089C52.826 144.651 47.763 148.25 43.371 152.886C38.979 157.522 35.502 162.951 32.94 169.173C30.5 175.273 29.28 181.861 29.28 188.937C29.28 196.135 30.378 202.845 32.574 209.067C34.892 215.167 38.125 220.474 42.273 224.988C46.543 229.502 51.667 233.04 57.645 235.602C63.623 238.164 70.333 239.445 77.775 239.445C84.485 239.445 90.463 238.408 95.709 236.334C100.955 234.26 105.286 231.942 108.702 229.38L116.205 245.118ZM250.771 122.691V255H233.203V196.989H163.846V255H146.095V122.691H163.846V180.153H233.203V122.691H250.771ZM280.651 188.937C280.651 179.787 282.359 171.186 285.775 163.134C289.313 154.96 294.193 147.762 300.415 141.54C306.637 135.196 313.774 130.255 321.826 126.717C330 123.057 338.784 121.227 348.178 121.227C357.45 121.227 366.112 123.057 374.164 126.717C382.338 130.255 389.536 135.196 395.758 141.54C402.102 147.762 407.043 154.96 410.581 163.134C414.119 171.186 415.888 179.787 415.888 188.937C415.888 198.331 414.119 207.115 410.581 215.289C407.043 223.463 402.102 230.661 395.758 236.883C389.536 242.983 382.338 247.802 374.164 251.34C366.112 254.756 357.45 256.464 348.178 256.464C338.784 256.464 330 254.756 321.826 251.34C313.774 247.924 306.637 243.166 300.415 237.066C294.193 230.966 289.313 223.829 285.775 215.655C282.359 207.481 280.651 198.575 280.651 188.937ZM298.951 189.12C298.951 196.074 300.232 202.601 302.794 208.701C305.356 214.679 308.894 219.986 313.408 224.622C317.922 229.258 323.168 232.918 329.146 235.602C335.124 238.164 341.59 239.445 348.544 239.445C355.376 239.445 361.781 238.164 367.759 235.602C373.737 232.918 378.922 229.258 383.314 224.622C387.706 219.986 391.183 214.679 393.745 208.701C396.307 202.601 397.588 196.013 397.588 188.937C397.588 181.983 396.307 175.456 393.745 169.356C391.183 163.134 387.645 157.705 383.131 153.069C378.617 148.433 373.371 144.834 367.393 142.272C361.415 139.588 355.01 138.246 348.178 138.246C341.224 138.246 334.758 139.588 328.78 142.272C322.802 144.956 317.556 148.616 313.042 153.252C308.528 157.888 305.051 163.317 302.611 169.539C300.171 175.639 298.951 182.166 298.951 189.12ZM480.93 122.691C487.64 122.691 493.801 123.606 499.413 125.436C505.147 127.144 510.088 129.767 514.236 133.305C518.506 136.721 521.8 140.991 524.118 146.115C526.558 151.117 527.778 156.973 527.778 163.683C527.778 168.929 526.985 174.053 525.399 179.055C523.935 184.057 521.434 188.632 517.896 192.78C514.358 196.806 509.722 200.1 503.988 202.662C498.376 205.102 491.422 206.322 483.126 206.322H463.545V255H445.794V122.691H480.93ZM482.76 189.303C488.006 189.303 492.337 188.51 495.753 186.924C499.291 185.338 502.036 183.325 503.988 180.885C505.94 178.323 507.343 175.578 508.197 172.65C509.051 169.722 509.478 166.977 509.478 164.415C509.478 161.731 508.99 158.986 508.014 156.18C507.16 153.252 505.696 150.568 503.622 148.128C501.67 145.688 499.047 143.675 495.753 142.089C492.581 140.503 488.677 139.71 484.041 139.71H463.545V189.303H482.76ZM504.537 199.368L539.124 255H518.628L483.492 199.917L504.537 199.368ZM582.345 208.152C582.345 214.13 583.748 219.498 586.554 224.256C589.482 228.892 593.325 232.552 598.083 235.236C602.841 237.92 608.209 239.262 614.187 239.262C620.409 239.262 625.96 237.92 630.84 235.236C635.72 232.552 639.563 228.892 642.369 224.256C645.175 219.498 646.578 214.13 646.578 208.152V122.691H663.963V208.701C663.963 218.339 661.706 226.757 657.192 233.955C652.8 241.153 646.822 246.704 639.258 250.608C631.816 254.512 623.459 256.464 614.187 256.464C604.915 256.464 596.558 254.512 589.116 250.608C581.674 246.704 575.757 241.153 571.365 233.955C566.973 226.757 564.777 218.339 564.777 208.701V122.691H582.345V208.152ZM768.72 146.298C764.206 143.98 759.265 141.967 753.897 140.259C748.529 138.551 743.283 137.697 738.159 137.697C731.083 137.697 725.41 139.344 721.14 142.638C716.992 145.932 714.918 150.324 714.918 155.814C714.918 159.962 716.26 163.5 718.944 166.428C721.628 169.234 725.166 171.674 729.558 173.748C733.95 175.822 738.525 177.774 743.283 179.604C747.431 181.19 751.518 182.959 755.544 184.911C759.57 186.863 763.169 189.303 766.341 192.231C769.635 195.159 772.197 198.758 774.027 203.028C775.979 207.298 776.955 212.605 776.955 218.949C776.955 225.903 775.186 232.247 771.648 237.981C768.232 243.715 763.291 248.229 756.825 251.523C750.359 254.817 742.673 256.464 733.767 256.464C727.911 256.464 722.299 255.793 716.931 254.451C711.685 253.109 706.805 251.401 702.291 249.327C697.777 247.131 693.751 244.874 690.213 242.556L698.082 228.648C701.01 230.722 704.365 232.735 708.147 234.687C711.929 236.517 715.894 238.042 720.042 239.262C724.19 240.36 728.216 240.909 732.12 240.909C736.268 240.909 740.355 240.177 744.381 238.713C748.529 237.127 751.945 234.748 754.629 231.576C757.313 228.404 758.655 224.195 758.655 218.949C758.655 214.435 757.435 210.714 754.995 207.786C752.677 204.736 749.566 202.174 745.662 200.1C741.758 197.904 737.61 195.952 733.218 194.244C729.07 192.658 724.861 190.95 720.591 189.12C716.321 187.168 712.356 184.85 708.696 182.166C705.036 179.36 702.108 175.944 699.912 171.918C697.716 167.892 696.618 163.012 696.618 157.278C696.618 150.324 698.265 144.285 701.559 139.161C704.975 133.915 709.611 129.828 715.467 126.9C721.323 123.85 728.033 122.203 735.597 121.959C744.137 121.959 751.64 122.996 758.106 125.07C764.694 127.144 770.489 129.706 775.491 132.756L768.72 146.298Z" fill="#01BCF3"></path>
<path d="M425.044 14.7058C433.596 33.0331 442.149 51.3596 450.701 69.686C453.631 75.965 459.959 79.9808 466.918 79.9808H478V76.482C478.233 71.6096 475.25 70.4353 473.875 70.4361C462.416 70.4361 462.059 69.4924 457.678 60.2131C449.007 41.8463 440.337 23.4787 431.665 5.11112C430.193 1.99138 427.039 0 423.574 0H423.269C419.804 0 416.65 1.99138 415.178 5.11112C406.506 23.4803 397.835 41.8495 389.164 60.2179C386.218 66.4598 379.908 70.4434 372.974 70.4409C365.774 70.4385 358.572 70.4353 351.372 70.4329V79.9808H379.926C386.887 79.9808 393.214 75.9642 396.143 69.686C404.696 51.3596 413.247 33.0331 421.8 14.7058C422.441 13.3331 424.403 13.3331 425.044 14.7058Z" fill="white"></path>
<path d="M373.726 0.0346702H382.507C368.034 15.1809 353.563 30.3279 339.091 45.4741C338.745 45.8363 338.599 46.1984 338.599 46.6985V79.9792H327.432V46.6985C327.432 46.1984 327.287 45.8363 326.94 45.4741C312.468 30.3279 297.996 15.1809 283.524 0.0346702H292.305C297.576 0.0346702 302.579 2.34866 305.977 6.35722C314.533 16.456 323.091 26.5549 331.648 36.6537C332.362 37.4965 333.668 37.4965 334.382 36.6537C342.94 26.5549 351.497 16.456 360.055 6.35641C363.452 2.34866 368.455 0.0346702 373.726 0.0346702Z" fill="white"></path>
<path d="M246.561 14.7058C238.009 33.0331 229.456 51.3596 220.904 69.686C217.974 75.965 211.646 79.9808 204.687 79.9808H181.293V70.4329H197.745C204.676 70.4329 210.983 66.4493 213.929 60.2098C222.599 41.8439 231.268 23.4771 239.938 5.11112C241.411 1.99138 244.565 1.38627e-06 248.031 1.38627e-06H248.334C251.8 1.38627e-06 254.953 1.99138 256.426 5.11112C265.097 23.4771 273.767 41.8439 282.437 60.2098C285.382 66.4493 291.689 70.4329 298.62 70.4329H315.267V79.9808H291.679C284.719 79.9808 278.391 75.9642 275.462 69.686C266.909 51.3596 258.357 33.0331 249.805 14.7058C249.164 13.3331 247.202 13.3331 246.561 14.7058Z" fill="white"></path>
<path d="M201.388 0.749907V0.0909538H124.493V0.749907C124.493 5.65858 128.495 9.6381 133.432 9.6381H148.422C153.359 9.6381 157.361 13.6176 157.361 18.5271V80H168.52V18.5271C168.52 13.6176 172.522 9.6381 177.458 9.6381H192.45C197.386 9.6381 201.388 5.65858 201.388 0.749907Z" fill="white"></path>
<path d="M70.9563 14.7058C62.4037 33.0331 53.8512 51.3596 45.2986 69.686C42.3688 75.965 36.0412 79.9808 29.0817 79.9808H18V76.482C18 71.3072 20.7497 70.4353 22.1246 70.4361C32.3143 70.4361 33.531 69.19 38.3221 60.2131C46.9931 41.8463 55.6632 23.4787 64.335 5.11112C65.8072 1.99138 68.9609 0 72.4261 0H72.7311C76.1962 0 79.3499 1.99138 80.8221 5.11112C89.4939 23.4803 98.1649 41.8495 106.836 60.2179C109.782 66.4598 116.092 70.4434 123.026 70.4409C130.226 70.4385 137.428 70.4353 144.628 70.4329V79.9808H116.074C109.114 79.9808 102.786 75.9642 99.8569 69.686C91.3043 51.3596 82.7526 33.0331 74.2 14.7058C73.5592 13.3331 71.5971 13.3331 70.9563 14.7058Z" fill="white"></path>
</svg>