<svg width="24" height="25" viewBox="0 0 24 25" fill="none" xmlns="http://www.w3.org/2000/svg">
<path fill-rule="evenodd" clip-rule="evenodd" d="M3.56006 6.4671C3.56006 4.84693 4.8733 3.53369 6.49328 3.53369H7.56007V5.1337H6.49328C5.75705 5.1337 5.16006 5.73068 5.16006 6.4671V21.4002C5.16006 22.1366 5.75705 22.7336 6.49328 22.7336H17.1603C17.8967 22.7336 18.4935 22.1366 18.4935 21.4002V6.4671C18.4935 5.73068 17.8967 5.1337 17.1603 5.1337H16.0935V3.53369H17.1603C18.7803 3.53369 20.0935 4.84693 20.0935 6.4671V21.4002C20.0935 23.0204 18.7803 24.3336 17.1603 24.3336H6.49328C4.87325 24.3336 3.56006 23.0204 3.56006 21.4002V6.4671Z" fill="#23262C"></path>
<path fill-rule="evenodd" clip-rule="evenodd" d="M11.8267 1.9335C10.9476 1.9335 10.4933 2.50173 10.4933 2.91138C10.4933 3.35317 10.1351 3.71138 9.69329 3.71138C8.95706 3.71138 8.36008 4.30819 8.36008 5.0446V5.66691H15.2931V5.0446C15.2931 4.30819 14.6963 3.71138 13.9599 3.71138C13.5181 3.71138 13.1599 3.35317 13.1599 2.91138C13.1599 2.50174 12.7056 1.9335 11.8265 1.9335H11.8267ZM9.00419 2.19261C9.3708 1.04938 10.5914 0.333496 11.8267 0.333496C13.062 0.333496 14.2826 1.04938 14.6492 2.19261C15.9367 2.50279 16.8933 3.66192 16.8933 5.0446V6.46691C16.8933 6.9087 16.5351 7.26692 16.0933 7.26692H7.56026C7.11829 7.26692 6.76025 6.9087 6.76025 6.46691V5.0446C6.76025 3.66192 7.71687 2.50278 9.00438 2.19261H9.00419Z" fill="#23262C"></path>
<path fill-rule="evenodd" clip-rule="evenodd" d="M15.5545 11.7324C15.8865 12.024 15.9194 12.5296 15.6279 12.8615L11.8819 17.1282C11.736 17.2944 11.5279 17.3926 11.307 17.3999C11.086 17.4073 10.8719 17.3226 10.7155 17.1665L8.06151 14.5174C7.74883 14.2053 7.74829 13.6989 8.06043 13.386C8.37258 13.0735 8.87918 13.073 9.19187 13.3851L11.2423 15.4316L14.4255 11.8059C14.7171 11.4739 15.2227 11.441 15.5546 11.7325L15.5545 11.7324Z" fill="#23262C"></path>
</svg>