<svg width="16" height="22" viewBox="0 0 16 22" fill="none" xmlns="http://www.w3.org/2000/svg">
<path d="M2.73079 14.2703H9.9449C10.0742 14.2703 10.179 14.1615 10.179 14.0269V9.55868C10.179 9.42424 10.0742 9.31532 9.9449 9.31532L2.73079 9.31547C2.60149 9.31547 2.49673 9.42424 2.49673 9.55883V14.0271C2.49673 14.1613 2.60149 14.2703 2.73079 14.2703ZM2.96486 9.80204H9.71066V13.7834H2.96486V9.80204Z" fill="#6A6F81"></path>
<path d="M4.01975 1.78378C3.41521 1.78378 2.92343 2.29147 2.92343 2.91517V6.92253H2.02768C1.12146 6.92253 0.384112 7.68333 0.384112 8.61866V19.9075C0.384112 20.8427 1.12133 21.6036 2.02768 21.6036H10.653C11.5592 21.6036 12.2966 20.8428 12.2966 19.9075L12.2964 8.61866C12.2964 7.68346 11.5592 6.92253 10.6529 6.92253H5.11595V2.91517C5.11595 2.29147 4.62429 1.78378 4.01975 1.78378ZM3.44453 2.91517C3.44453 2.58797 3.70254 2.32156 4.01975 2.32156C4.33682 2.32156 4.59497 2.58781 4.59497 2.91517V6.92253H3.44466L3.44453 2.91517ZM10.653 7.46043C11.2717 7.46043 11.7753 7.97997 11.7753 8.61866V19.9075C11.7753 20.5462 11.2718 21.0657 10.653 21.0657L2.02764 21.0655C1.4089 21.0655 0.905302 20.546 0.905302 19.9073V8.61893C0.905302 7.98023 1.40886 7.4607 2.02764 7.4607L10.653 7.46043Z" fill="#6A6F81"></path>
<path fill-rule="evenodd" clip-rule="evenodd" d="M2.02764 7.4607C1.40886 7.4607 0.905302 7.98023 0.905302 8.61893V19.9073C0.905302 20.546 1.4089 21.0655 2.02764 21.0655L10.653 21.0657C11.2718 21.0657 11.7753 20.5462 11.7753 19.9075V8.61866C11.7753 7.97997 11.2717 7.46043 10.653 7.46043L2.02764 7.4607ZM4.01975 1.78378C4.01979 1.78378 4.01971 1.78378 4.01975 1.78378C4.62429 1.78378 5.11595 2.29147 5.11595 2.91517V6.92253H10.6529C11.5592 6.92253 12.2964 7.68346 12.2964 8.61866L12.2966 19.9075C12.2966 20.8428 11.5592 21.6036 10.653 21.6036H2.02768C1.12133 21.6036 0.384112 20.8427 0.384112 19.9075V8.61866C0.384112 7.68333 1.12146 6.92253 2.02768 6.92253H2.92343V2.91517C2.92343 2.29147 3.41521 1.78378 4.01975 1.78378ZM2.53931 6.52613V2.91517C2.53931 2.07263 3.20297 1.38746 4.01963 1.38739M2.53931 6.52613H2.02768C0.909339 6.52613 0 7.46439 0 8.61866V19.9075C0 21.0616 0.909175 22 2.02768 22H10.653C11.7714 22 12.6807 21.0617 12.6807 19.9075L12.6805 8.61866C12.6805 7.46456 11.7714 6.52613 10.6529 6.52613H5.50007V2.91517C5.50007 2.07263 4.83629 1.38746 4.01963 1.38739M2.02764 7.85709C1.62097 7.85709 1.28941 8.19918 1.28941 8.61893V19.9073C1.28941 20.327 1.621 20.6691 2.02764 20.6691L10.653 20.6693C11.0597 20.6693 11.3912 20.3272 11.3912 19.9075V8.61866C11.3912 8.19893 11.0596 7.85683 10.653 7.85683L2.02764 7.85709ZM4.01975 2.71795C3.91475 2.71795 3.82865 2.80682 3.82864 2.91516C3.82864 2.91516 3.82864 2.91515 3.82864 2.91516L3.82876 6.52613H4.21086V2.91517C4.21086 2.8068 4.12474 2.71795 4.01975 2.71795ZM3.44466 6.92253L3.44453 2.91517C3.44453 2.58797 3.70254 2.32156 4.01975 2.32156C4.33682 2.32156 4.59497 2.58781 4.59497 2.91517V6.92253H3.44466Z" fill="#6A6F81"></path>
<path d="M7.06033 14.8649H5.61536C5.484 14.8649 5.37756 14.9745 5.37756 15.1103V16.6014C5.37756 16.737 5.484 16.8468 5.61536 16.8468H7.06033C7.19169 16.8468 7.29812 16.7372 7.29812 16.6014V15.1103C7.29812 14.9746 7.19169 14.8649 7.06033 14.8649ZM6.82253 16.356H5.85314V15.3557H6.82253V16.356Z" fill="#6A6F81"></path>
<path d="M2.7345 16.8468H4.17951C4.31086 16.8468 4.41728 16.7372 4.41728 16.6014V15.1103C4.41728 14.9747 4.31086 14.8649 4.17951 14.8649H2.7345C2.60315 14.8649 2.49673 14.9745 2.49673 15.1103V16.6014C2.49673 16.737 2.60315 16.8468 2.7345 16.8468ZM2.97228 15.3557H3.94174V16.3561H2.97228V15.3557Z" fill="#6A6F81"></path>
<path d="M9.94118 14.8649H8.49618C8.36483 14.8649 8.2584 14.9745 8.2584 15.1103V16.6014C8.2584 16.737 8.36483 16.8468 8.49618 16.8468H9.94118C10.0725 16.8468 10.179 16.7372 10.179 16.6014V15.1103C10.179 14.9746 10.0725 14.8649 9.94118 14.8649ZM9.7034 16.356H8.73394V15.3557H9.7034V16.356Z" fill="#6A6F81"></path>
<path d="M7.06033 17.4414H5.61536C5.484 17.4414 5.37756 17.5511 5.37756 17.6868V19.178C5.37756 19.3136 5.484 19.4234 5.61536 19.4234H7.06033C7.19169 19.4234 7.29812 19.3137 7.29812 19.178V17.6868C7.29812 17.5511 7.19169 17.4414 7.06033 17.4414ZM6.82253 18.9326H5.85314V17.9322H6.82253V18.9326Z" fill="#6A6F81"></path>
<path d="M2.7345 19.4234H4.17951C4.31086 19.4234 4.41728 19.3137 4.41728 19.178V17.6868C4.41728 17.5513 4.31086 17.4414 4.17951 17.4414H2.7345C2.60315 17.4414 2.49673 17.5511 2.49673 17.6868V19.178C2.49673 19.3136 2.60315 19.4234 2.7345 19.4234ZM2.97228 17.9321H3.94174V18.9325H2.97228V17.9321Z" fill="#6A6F81"></path>
<path d="M9.94118 17.4414H8.49618C8.36483 17.4414 8.2584 17.5511 8.2584 17.6868V19.178C8.2584 19.3136 8.36483 19.4234 8.49618 19.4234H9.94118C10.0725 19.4234 10.179 19.3137 10.179 19.178V17.6868C10.179 17.5511 10.0725 17.4414 9.94118 17.4414ZM9.7034 18.9326H8.73394V17.9322H9.7034V18.9326Z" fill="#6A6F81"></path>
<path d="M9.98691 3.56757V4.45946C10.2161 4.45946 10.436 4.55343 10.5981 4.72066C10.7601 4.88788 10.8512 5.11484 10.8512 5.35135H11.7154C11.7154 4.87833 11.5333 4.4246 11.2092 4.08996C10.8849 3.7555 10.4453 3.56757 9.98691 3.56757Z" fill="#6A6F81"></path>
<path d="M9.98691 1.78378V2.67568C10.6743 2.67647 11.3335 2.95857 11.8196 3.46008C12.3055 3.96177 12.5789 4.64202 12.5797 5.35135H13.4439C13.4429 4.40549 13.0783 3.49866 12.4302 2.82995C11.7822 2.16103 10.9035 1.78475 9.98691 1.78378Z" fill="#6A6F81"></path>
<path d="M9.98691 0V0.891892C11.1326 0.893286 12.231 1.36352 13.0411 2.19946C13.8512 3.03539 14.3068 4.16901 14.3082 5.35135H15.1724C15.1709 3.93248 14.6241 2.57237 13.6521 1.56897C12.6798 0.565765 11.3618 0.00157992 9.98691 0Z" fill="#6A6F81"></path>
</svg>