<svg width="24" height="24" viewBox="0 0 24 24" fill="none" xmlns="http://www.w3.org/2000/svg">
<g clip-path="url(#clip0_16444_163733)">
<mask id="mask0_16444_163733" style="mask-type:luminance" maskUnits="userSpaceOnUse" x="0" y="0" width="24" height="24">
<path d="M24 0H0V24H24V0Z" fill="white"></path>
</mask>
<g mask="url(#mask0_16444_163733)">
<path d="M8.07806 5.77486C9.57913 5.23966 11.2063 5.00374 12.8185 5.04454C14.4203 5.07622 16.0122 5.39398 17.468 5.9971C19.0352 6.64582 20.4499 7.5895 21.5733 8.76934C22.9387 10.2067 23.8955 11.9625 24.2732 13.8314C24.4096 14.4895 24.4701 15.156 24.48 15.8273C24.4243 15.9585 24.4293 16.1042 24.3742 16.2353C24.1721 16.7616 23.5879 17.1703 22.9584 17.1518C20.7063 17.1429 18.4549 17.1609 16.2081 17.1429C17.7694 15.3283 19.3563 13.5317 20.9227 11.7218C21.3105 11.2505 21.472 10.638 21.356 10.0617C21.2401 9.4315 20.7516 8.8507 20.0861 8.61502C19.2254 8.3155 18.1815 8.48374 17.5125 9.0547C15.694 10.6608 13.8854 12.2664 12.0666 13.8722C11.694 13.9315 11.3161 13.9997 10.9632 14.1401C9.67401 14.6527 8.72652 15.8594 8.74117 17.1432C6.64602 17.1612 4.55008 17.1432 2.45466 17.148C2.1327 17.1432 1.79954 17.184 1.49224 17.075C1.08952 16.9392 0.752369 16.6356 0.600984 16.2717C0.535152 16.1316 0.540215 15.9729 0.47998 15.8273C0.490108 14.5257 0.736644 13.2233 1.2505 12.0079C1.79954 10.7018 2.6359 9.48526 3.694 8.4607C4.90909 7.28494 6.42028 6.36454 8.07806 5.77486ZM11.5085 9.03142C12.1532 9.02734 12.8033 9.02734 13.4531 9.03142C13.4784 8.1247 13.4483 7.2127 13.4683 6.30526C12.8134 6.28318 12.1591 6.30526 11.5037 6.29686C11.4933 7.20382 11.4933 8.12038 11.5085 9.03142ZM6.70733 8.11534C6.27929 8.51902 5.811 8.89558 5.37737 9.29518C5.36724 9.35398 5.44773 9.38134 5.47811 9.4219C6.15296 10.0296 6.823 10.6329 7.49837 11.2413C7.952 10.842 8.40002 10.4381 8.85845 10.0481C8.83846 9.97102 8.76276 9.92974 8.70706 9.88006C8.06287 9.29518 7.41255 8.71438 6.76783 8.12926C6.7529 8.1247 6.72278 8.11534 6.70733 8.11534ZM3.56927 12.5294C3.49331 13.1049 3.39816 13.6819 3.32753 14.2617C4.33019 14.3755 5.327 14.5068 6.32993 14.6109C6.42028 14.0352 6.49597 13.4549 6.61697 12.8873C5.59992 12.7694 4.58206 12.6427 3.56927 12.5294Z" fill="#336C91" stroke="#336C91" stroke-width="0.0938"></path>
<path d="M17.5228 11.023C17.8298 10.7775 18.3498 10.6962 18.6811 10.9503C18.9183 11.1226 18.9636 11.4404 18.8682 11.6893C18.8131 11.8618 18.6715 11.9934 18.5508 12.1292C17.1502 13.7622 15.7094 15.3682 14.3032 17.0058C14.4948 17.9218 13.619 18.8701 12.5857 18.8931C11.5583 18.9747 10.611 18.1489 10.6262 17.228C10.5806 16.3431 11.4522 15.5406 12.4298 15.5314C14.1433 14.049 15.8203 12.5199 17.5228 11.023Z" fill="#336C91"></path>
</g>
</g>
<defs>
<clipPath id="clip0_16444_163733">
<rect width="24" height="24" fill="white"></rect>
</clipPath>
</defs>
</svg>