<svg width="24" height="24" viewBox="0 0 24 24" fill="none" xmlns="http://www.w3.org/2000/svg">
<path d="M6.8769 17.9151V17.4351H3.65941C2.58316 17.4351 1.69141 18.2961 1.69141 19.3723C1.69141 19.5261 1.84516 19.6798 1.9989 19.6798H6.8769C6.8769 19.6798 6.8769 19.5227 6.8769 19.369C6.8769 18.2927 6.8769 18.9407 6.8769 17.9151Z" fill="#23262C"></path>
<path d="M6.95986 12.5151H5.50412C5.38112 12.5151 5.25811 12.5766 5.22737 12.6996L3.50537 16.8201H6.95986V16.0682C6.56184 15.9087 6.27286 15.5151 6.27286 15.0674C6.27286 14.6196 6.56184 14.226 6.95986 14.0666V12.5151Z" fill="#23262C"></path>
<path d="M6.96008 11.9004V10.4619L5.13534 5.62744C4.52034 6.11944 3.75157 6.42693 2.89057 6.42693H2.79834L4.92008 12.1157C5.07383 11.9619 5.28908 11.9004 5.50434 11.9004H6.96008Z" fill="#23262C"></path>
<path d="M3.5054 2.92116C3.5054 2.5829 3.22863 2.30615 2.8904 2.30615C2.55214 2.30615 2.27539 2.5829 2.27539 2.92116C2.27539 3.25939 2.55214 3.53616 2.8904 3.53616C3.2594 3.53616 3.5054 3.22865 3.5054 2.92116Z" fill="#23262C"></path>
<path d="M5.81174 2.92126C5.81174 1.32225 4.52026 0 2.89049 0C1.2915 0 0 1.2915 0 2.92126C0 4.52026 1.2915 5.84249 2.89049 5.84249C4.52026 5.81174 5.81174 4.52026 5.81174 2.92126ZM1.69125 2.92126C1.69125 2.24475 2.24475 1.69125 2.92126 1.69125C3.59774 1.69125 4.15126 2.24475 4.15126 2.92126C4.15126 3.59774 3.59774 4.15126 2.92126 4.15126C2.24475 4.15126 1.69125 3.59774 1.69125 2.92126Z" fill="#23262C"></path>
<path d="M11.9616 4.27435C11.9309 4.15135 11.9309 4.02835 11.9309 3.90535V1.9066C11.9309 1.7836 11.9309 1.6606 11.9616 1.5376H6.1499C6.33439 1.9681 6.42665 2.42935 6.42665 2.92135C6.42665 3.41335 6.33439 3.87459 6.1499 4.3051H11.9616V4.27435Z" fill="#23262C"></path>
<path d="M17.8656 3.56701L15.9591 4.55101L14.7906 3.47475V2.36775L15.9591 1.2915L17.8656 2.2755C18.0194 2.36775 18.2039 2.30625 18.2654 2.1525C18.3576 1.99875 18.2654 1.81425 18.1424 1.722L16.0514 0.615003C15.9284 0.553503 15.8054 0.584255 15.7131 0.676503L14.8214 1.50675V0.891752C14.8214 0.707252 14.6676 0.584255 14.5139 0.584255H13.8989C13.1609 0.584255 12.5459 1.1685 12.5459 1.9065V3.90526C12.5459 4.64326 13.1301 5.22749 13.8681 5.22749H14.4831C14.6369 5.22749 14.7906 5.07375 14.7906 4.92001V4.30501L15.6824 5.13526C15.7746 5.22749 15.9284 5.22749 16.0206 5.19675L18.1116 4.12049C18.2654 4.02826 18.3269 3.87449 18.2346 3.72075C18.2039 3.53626 18.0194 3.47475 17.8656 3.56701Z" fill="#23262C"></path>
<path d="M8.20151 21.0801L8.84147 20.1201H9.23555H20.7642H21.1583L21.7983 21.0801H8.20151ZM20.8794 18.8011C20.8794 18.8692 20.8254 18.9201 20.7642 18.9201H9.23555C9.17447 18.9201 9.12035 18.8691 9.12035 18.8011V10.879C9.12035 10.811 9.1744 10.7601 9.23555 10.7601H20.7642C20.8253 10.7601 20.8794 10.8111 20.8794 10.879V18.8011ZM23.4185 21.3473L22.0079 19.2311C22.0542 19.0963 22.0794 18.9516 22.0794 18.8011V10.879C22.0794 10.1521 21.4918 9.56006 20.7642 9.56006H9.23555C8.50799 9.56006 7.9204 10.1519 7.9204 10.879V18.8011C7.9204 18.9516 7.94557 19.0962 7.99194 19.2311L6.58127 21.3473C6.31547 21.746 6.60124 22.2801 7.08047 22.2801H22.9193C23.3985 22.2801 23.6843 21.746 23.4185 21.3473Z" fill="#23262C"></path>
</svg>