<svg width="24" height="24" viewBox="0 0 24 24" fill="none" xmlns="http://www.w3.org/2000/svg">
<g clip-path="url(#clip0_228_4747)">
<path d="M22.7233 4.35857C22.7235 4.26358 22.7044 4.16953 22.6673 4.08209C22.6302 3.99465 22.5758 3.91563 22.5073 3.84977L19.0033 0.446569C18.917 0.361437 18.8105 0.299603 18.6938 0.266858C18.5771 0.234114 18.4539 0.23153 18.336 0.259349C18.218 0.287168 18.109 0.34448 18.0192 0.425917C17.9294 0.507353 17.8617 0.61025 17.8225 0.724969C17.8177 0.744169 17.1985 2.48177 15.5041 2.48177C15.4577 2.48257 15.4112 2.48097 15.3649 2.47697C14.8084 2.43823 14.2723 2.25194 13.8117 1.93726C13.351 1.62259 12.9826 1.19089 12.7441 0.686569C12.6908 0.555923 12.5998 0.444129 12.4827 0.36547C12.3655 0.28681 12.2276 0.244857 12.0865 0.244969H12.0817C11.9408 0.245432 11.803 0.287005 11.6854 0.364592C11.5677 0.442179 11.4753 0.552408 11.4193 0.681769C11.1822 1.18749 10.8142 1.62062 10.3534 1.93626C9.89258 2.25191 9.35575 2.43859 8.79852 2.47697C7.01772 2.59697 6.36972 0.796969 6.34092 0.724969C6.30174 0.61025 6.23407 0.507353 6.14427 0.425917C6.05447 0.34448 5.94547 0.287168 5.82748 0.259349C5.70949 0.23153 5.58637 0.234114 5.46965 0.266858C5.35293 0.299603 5.24642 0.361437 5.16012 0.446569L1.65612 3.84977C1.58766 3.91563 1.53323 3.99465 1.49611 4.08209C1.45899 4.16953 1.43995 4.26358 1.44012 4.35857C1.43795 4.45412 1.45559 4.54909 1.49194 4.63749C1.52829 4.72588 1.58256 4.80579 1.65132 4.87217C3.17292 6.39857 2.98092 8.52497 2.04492 12.1634C1.11372 15.7874 2.06412 20.7554 11.8657 23.861C12.0062 23.9057 12.1572 23.9057 12.2977 23.861C22.0993 20.7554 23.0497 15.7874 22.1185 12.1634C21.1825 8.52497 20.9905 6.39857 22.5121 4.87217C22.5809 4.80579 22.6352 4.72588 22.6715 4.63749C22.7078 4.54909 22.7255 4.45412 22.7233 4.35857ZM15.9361 10.8098L11.2657 15.6722C11.1989 15.7423 11.1185 15.7981 11.0293 15.8361C10.9402 15.874 10.8442 15.8934 10.7473 15.893H10.6993C10.5952 15.8855 10.4938 15.856 10.4019 15.8063C10.31 15.7567 10.2298 15.688 10.1665 15.605L8.22732 13.0034C8.1709 12.9274 8.13 12.8411 8.10695 12.7493C8.08389 12.6576 8.07914 12.5622 8.09296 12.4686C8.12086 12.2795 8.22272 12.1093 8.37612 11.9954C8.52952 11.8814 8.7219 11.8331 8.91094 11.861C9.09997 11.8889 9.27018 11.9908 9.38412 12.1442L10.8145 14.0642L14.8945 9.81137C14.9601 9.74298 15.0385 9.68817 15.1252 9.65007C15.2119 9.61197 15.3053 9.59133 15.4 9.58932C15.4948 9.58731 15.5889 9.60398 15.6772 9.63838C15.7655 9.67277 15.8461 9.72421 15.9145 9.78977C15.9829 9.85532 16.0377 9.93371 16.0758 10.0204C16.1139 10.1072 16.1346 10.2006 16.1366 10.2953C16.1386 10.39 16.1219 10.4842 16.0875 10.5725C16.0531 10.6607 16.0017 10.7414 15.9361 10.8098Z" fill="#222838"></path>
</g>
<defs>
<clipPath id="clip0_228_4747">
<rect width="24" height="24" fill="white"></rect>
</clipPath>
</defs>
</svg>