<svg width="24" height="24" viewBox="0 0 24 24" fill="none" xmlns="http://www.w3.org/2000/svg">
<g clip-path="url(#clip0_16444_163731)">
<path d="M12 0C5.38339 0 0 5.38339 0 12C0 18.6166 5.38339 24 12 24C18.6166 24 24 18.6166 24 12C24 5.38339 18.6166 0 12 0ZM21.5952 6.63054C20.3291 6.09 18.5117 5.89307 16.3657 6.06911C15.8792 3.97607 15.1396 2.28857 14.2388 1.22968C17.3967 1.88507 20.0614 3.89925 21.5952 6.63054ZM10.7593 7.71809C10.8378 7.98155 11.1134 8.13306 11.3812 8.05416C12.8701 7.61011 14.2736 7.31965 15.5501 7.15915C15.8406 8.70163 16.0002 10.3795 16.0002 12C16.0002 12.0151 15.9998 12.0299 15.9998 12.045C14.5831 12.2846 13.5002 13.5166 13.5002 15C13.5002 15.22 13.5257 15.4344 13.5707 15.6416C13.4581 15.6791 13.3476 15.7186 13.2338 15.7551C11.6693 16.259 9.99776 16.6256 8.42029 16.8215C8.20873 15.6734 8.06329 14.393 8.01579 12.9825C8.00679 12.7065 7.77974 12.4736 7.49932 12.5C7.22331 12.5094 7.00735 12.74 7.01676 13.0164C7.06385 14.4153 7.20678 15.7229 7.42169 16.9223C4.45662 17.1569 2.01097 16.7198 1.56365 15.3568C1.15768 14.1177 2.75208 12.2143 5.55365 10.5494C6.01257 11.1244 6.71005 11.5001 7.50001 11.5001C8.8784 11.5001 10.0001 10.3786 10.0001 9.00001C10.0001 7.98339 9.38798 7.11055 8.51455 6.72007C9.22962 3.28249 10.607 1.00025 12 1.00025C13.464 1.00025 14.652 3.23728 15.3426 6.17825C14.01 6.35131 12.5797 6.65327 11.0945 7.0963C10.8305 7.17477 10.6798 7.45298 10.7593 7.71809ZM14.5003 15.0001C14.5003 13.905 15.3853 13.015 16.4778 13.0026C16.4814 13.0026 16.4839 13.0047 16.4872 13.0047H16.4962C16.5017 13.0047 16.5067 13.0018 16.5121 13.0018C17.6097 13.0077 18.5001 13.901 18.5001 15.0001C18.5001 16.1031 17.6032 17 16.5002 17C15.3972 17 14.5003 16.1031 14.5003 15.0001ZM7.50011 7.50005C8.32714 7.50005 9.00011 8.17302 9.00011 9.00005C9.00011 9.82709 8.32714 10.5001 7.50011 10.5001C6.67307 10.5001 6.00011 9.82709 6.00011 9.00005C6.00011 8.17302 6.67307 7.50005 7.50011 7.50005ZM9.7522 1.23166C8.80462 2.34161 8.02768 4.15966 7.53863 6.50363C7.52565 6.50363 7.51372 6.50007 7.50012 6.50007C6.12173 6.50007 5.00005 7.62153 5.00005 9.00014C5.00005 9.2297 5.04106 9.44713 5.09903 9.65869C3.156 10.8021 1.77846 12.0207 1.06505 13.1896C1.0232 12.7981 1.00018 12.4021 1.00018 12.0001C1.00018 6.70514 4.76111 2.27201 9.7522 1.23166ZM2.40595 17.3722C3.37254 17.7817 4.65846 17.9922 6.16141 17.9922C6.62891 17.9922 7.12045 17.9682 7.62584 17.9278C8.10589 20.0309 8.83473 21.7113 9.73039 22.7638C6.58746 22.1017 3.93595 20.093 2.40595 17.3722ZM14.2747 22.762C14.9113 22.0074 15.4721 20.9219 15.9273 19.532C16.0133 19.2696 15.8703 18.9871 15.6077 18.9011C15.3432 18.813 15.0622 18.9587 14.9768 19.2207C14.2019 21.5875 13.0893 23 11.9998 23C10.7673 23 9.40437 21.1001 8.62946 17.8241C10.1629 17.628 11.8255 17.259 13.54 16.707C13.6779 16.6624 13.8121 16.6149 13.9481 16.5691C14.4769 17.426 15.4213 18 16.4999 18C18.1543 18 19.4999 16.6545 19.4999 15C19.4999 13.5166 18.4163 12.284 16.9994 12.045C16.9994 12.03 16.9998 12.0151 16.9998 12C16.9998 10.2276 16.8462 8.55808 16.5704 7.05808C19.8184 6.81554 22.0555 7.48205 22.4359 8.64197C22.749 9.5964 21.8713 10.9824 20.0899 12.3491C19.8708 12.5175 19.8293 12.831 19.9969 13.0501C20.0955 13.1786 20.2439 13.2462 20.3945 13.2462C20.5006 13.2462 20.6076 13.2127 20.698 13.1432C21.719 12.3602 22.4675 11.5727 22.9344 10.8112C22.9768 11.2021 22.9999 11.5981 22.9999 12C22.9999 17.2856 19.252 21.7109 14.2747 22.762Z" fill="#336C91"></path>
</g>
<defs>
<clipPath id="clip0_16444_163731">
<rect width="24" height="24" fill="white"></rect>
</clipPath>
</defs>
</svg>