<svg width="24" height="25" viewBox="0 0 24 25" fill="none" xmlns="http://www.w3.org/2000/svg">
<g clip-path="url(#clip0_16444_163725)">
<path d="M6.74704 14.1188C6.93186 14.3048 7.17835 14.3978 7.39413 14.3978C7.60991 14.3978 7.85617 14.3048 8.04122 14.1188C8.41085 13.7468 8.41085 13.1577 8.04122 12.8166C5.8537 10.6151 5.8537 7.04963 8.04122 4.84829C8.41085 4.47629 8.41085 3.88719 8.04122 3.54608C7.67158 3.17409 7.08621 3.17409 6.74726 3.54608C3.85121 6.42964 3.8512 11.2043 6.74704 14.1188Z" fill="#336C91"></path>
<path d="M17.2836 3.51533C16.914 3.14333 16.3286 3.14333 15.9896 3.51533C15.62 3.88732 15.62 4.47642 15.9896 4.81753C18.1771 7.01898 18.1771 10.5844 15.9896 12.7858C15.62 13.1578 15.62 13.7469 15.9896 14.088C16.1745 14.274 16.4209 14.367 16.6367 14.367C16.8525 14.367 17.0988 14.274 17.2838 14.088C20.1794 11.2046 20.1794 6.42978 17.2836 3.51533Z" fill="#336C91"></path>
<path d="M4.15908 17.6534C4.40557 17.6534 4.62112 17.5603 4.80617 17.3743C5.1758 17.0023 5.1758 16.4133 4.80617 16.0722C0.831983 12.0727 0.831983 5.59254 4.80617 1.59292C5.1758 1.22092 5.1758 0.631821 4.80617 0.290713C4.43653 -0.0812792 3.85116 -0.0812792 3.51221 0.290713C-1.17074 4.97239 -1.17074 12.6616 3.51221 17.3743C3.69703 17.5603 3.94352 17.6534 4.15908 17.6534Z" fill="#336C91"></path>
<path d="M19.1937 0.259598C18.8241 0.631589 18.8241 1.22069 19.1937 1.5618C23.1679 5.56131 23.1679 12.0414 19.1937 16.0411C18.8241 16.4131 18.8241 17.0022 19.1937 17.3433C19.3785 17.5293 19.625 17.6223 19.8408 17.6223C20.0566 17.6223 20.3028 17.5293 20.4879 17.3433C25.1708 12.6305 25.1708 4.97233 20.4879 0.228592C20.1488 -0.0811128 19.5633 -0.0812509 19.1937 0.259598Z" fill="#336C91"></path>
<path d="M6.10023 23.9783C6.31599 24.1334 6.56227 24.2264 6.80877 24.2264C7.086 24.2264 7.36321 24.1334 7.60974 23.9162L12.0154 20.1648L16.3902 23.9165C16.606 24.1025 16.914 24.1955 17.1912 24.1955C17.4377 24.1955 17.6842 24.1025 17.9307 23.9474C18.3927 23.6063 18.5468 23.0172 18.362 22.4902L13.9872 11.4524C14.1103 11.3594 14.2337 11.2664 14.3261 11.1423C15.5893 9.871 15.5893 7.76278 14.3261 6.49153C13.0629 5.22027 10.968 5.22027 9.70483 6.49153C8.44162 7.76278 8.44162 9.871 9.70483 11.1423C9.82797 11.2662 9.92059 11.3594 10.0437 11.4524L5.69968 22.4902C5.48413 23.0172 5.66892 23.6373 6.10023 23.9783ZM8.31844 20.8778L9.4583 17.9633L10.5674 18.9244L8.31844 20.8778ZM13.4327 18.9245L14.5418 17.9634L15.6817 20.8779L13.4327 18.9245ZM10.9987 7.79368C11.2759 7.51469 11.6458 7.35962 12.0154 7.35962C12.385 7.35962 12.7548 7.51469 13.0321 7.79368C13.5865 8.35166 13.5865 9.25091 13.0321 9.80888C12.4776 10.3669 11.5841 10.3669 11.0296 9.80888C10.4442 9.28183 10.4442 8.35166 10.9987 7.79368ZM12.2312 12.1034L13.833 16.1341L12.0154 17.6843L10.1977 16.1341L11.7996 12.1034H12.2312Z" fill="#336C91"></path>
</g>
<defs>
<clipPath id="clip0_16444_163725">
<rect width="24" height="25" fill="white"></rect>
</clipPath>
</defs>
</svg>