<svg width="16" height="16" viewBox="0 0 16 16" fill="none" xmlns="http://www.w3.org/2000/svg">
<path fill-rule="evenodd" clip-rule="evenodd" d="M12.9532 8.65337C12.9799 8.44004 12.9999 8.22671 12.9999 8.00004C12.9999 7.77337 12.9799 7.56004 12.9532 7.34671L14.3599 6.24671C14.4866 6.14671 14.5199 5.96671 14.4399 5.82004L13.1066 3.51337C13.0266 3.36671 12.8466 3.31337 12.6999 3.36671L11.0399 4.03337C10.6932 3.76671 10.3199 3.54671 9.91323 3.38004L9.65989 1.61337C9.63989 1.45337 9.49989 1.33337 9.33323 1.33337H6.66656C6.49989 1.33337 6.35989 1.45337 6.33989 1.61337L6.08656 3.38004C5.67989 3.54671 5.30656 3.77337 4.95989 4.03337L3.29989 3.36671C3.14656 3.30671 2.97323 3.36671 2.89323 3.51337L1.55989 5.82004C1.47323 5.96671 1.51323 6.14671 1.63989 6.24671L3.04656 7.34671C3.01989 7.56004 2.99989 7.78004 2.99989 8.00004C2.99989 8.22004 3.01989 8.44004 3.04656 8.65337L1.63989 9.75337C1.51323 9.85337 1.47989 10.0334 1.55989 10.18L2.89323 12.4867C2.97323 12.6334 3.15323 12.6867 3.29989 12.6334L4.95989 11.9667C5.30656 12.2334 5.67989 12.4534 6.08656 12.62L6.33989 14.3867C6.35989 14.5467 6.49989 14.6667 6.66656 14.6667H9.33323C9.49989 14.6667 9.63989 14.5467 9.65989 14.3867L9.91323 12.62C10.3199 12.4534 10.6932 12.2267 11.0399 11.9667L12.6999 12.6334C12.8532 12.6934 13.0266 12.6334 13.1066 12.4867L14.4399 10.18C14.5199 10.0334 14.4866 9.85337 14.3599 9.75337L12.9532 8.65337ZM7.99988 10.3334C6.71321 10.3334 5.66655 9.28671 5.66655 8.00004C5.66655 6.71337 6.71321 5.66671 7.99988 5.66671C9.28655 5.66671 10.3332 6.71337 10.3332 8.00004C10.3332 9.28671 9.28655 10.3334 7.99988 10.3334Z" fill="#6A6F81"></path>
</svg>