<svg width="24" height="25" viewBox="0 0 24 25" fill="none" xmlns="http://www.w3.org/2000/svg">
<g clip-path="url(#clip0_16444_163719)">
<path fill-rule="evenodd" clip-rule="evenodd" d="M3.09668 14.7098C3.09668 13.427 4.13649 12.3872 5.41927 12.3872H14.7096C15.9924 12.3872 17.0322 13.427 17.0322 14.7098V19.3549C17.0322 20.6377 15.9924 21.6775 14.7096 21.6775H5.41927C4.13649 21.6775 3.09668 20.6377 3.09668 19.3549V14.7098ZM5.41927 13.9356C4.99173 13.9356 4.64507 14.2822 4.64507 14.7098V19.3549C4.64507 19.7825 4.99173 20.1291 5.41927 20.1291H6.19346V18.5807C6.19346 18.1532 6.54012 17.8066 6.96765 17.8066C7.39519 17.8066 7.74185 18.1532 7.74185 18.5807V20.1291H9.29023V18.5807C9.29023 18.1532 9.63689 17.8066 10.0644 17.8066C10.492 17.8066 10.8386 18.1532 10.8386 18.5807V20.1291H12.387V18.5807C12.387 18.1532 12.7337 17.8066 13.1612 17.8066C13.5887 17.8066 13.9354 18.1532 13.9354 18.5807V20.1291H14.7096C15.1371 20.1291 15.4838 19.7825 15.4838 19.3549V14.7098C15.4838 14.2822 15.1371 13.9356 14.7096 13.9356H13.9354V15.484C13.9354 15.9115 13.5887 16.2582 13.1612 16.2582C12.7337 16.2582 12.387 15.9115 12.387 15.484V13.9356H10.8386V15.484C10.8386 15.9115 10.492 16.2582 10.0644 16.2582C9.63689 16.2582 9.29023 15.9115 9.29023 15.484V13.9356H7.74185V15.484C7.74185 15.9115 7.39519 16.2582 6.96765 16.2582C6.54012 16.2582 6.19346 15.9115 6.19346 15.484V13.9356H5.41927Z" fill="#336C91"></path>
<path fill-rule="evenodd" clip-rule="evenodd" d="M0 3.87097C0 1.73313 1.73313 0 3.87097 0H11.7708C12.8765 0 13.9294 0.472833 14.664 1.29919L19.1512 6.34737C19.7811 7.05609 20.129 7.9711 20.129 8.91915V20.9032C20.129 23.0411 18.3959 24.7742 16.2581 24.7742H3.87097C1.73313 24.7742 0 23.0411 0 20.9032V3.87097ZM3.87097 1.54839C2.5882 1.54839 1.54839 2.5882 1.54839 3.87097V20.9032C1.54839 22.186 2.5882 23.2258 3.87097 23.2258H16.2581C17.5408 23.2258 18.5806 22.186 18.5806 20.9032V8.91915C18.5806 8.35045 18.3719 7.80139 17.9939 7.37612L13.5067 2.32793C13.066 1.83214 12.4341 1.54839 11.7708 1.54839H3.87097Z" fill="#336C91"></path>
<path d="M21.6773 1.54861C21.6773 1.12107 21.3307 0.774414 20.9031 0.774414C20.4756 0.774414 20.1289 1.12107 20.1289 1.54861V3.87119C20.1289 4.29872 20.4756 4.64538 20.9031 4.64538C21.3307 4.64538 21.6773 4.29872 21.6773 3.87119V1.54861Z" fill="#336C91"></path>
<path d="M23.2259 0C23.6534 0 24.0001 0.346657 24.0001 0.774194V3.87097C24.0001 4.2985 23.6534 4.64516 23.2259 4.64516C22.7984 4.64516 22.4517 4.2985 22.4517 3.87097V0.774194C22.4517 0.346657 22.7984 0 23.2259 0Z" fill="#336C91"></path>
<path d="M19.3549 2.32253C19.3549 1.89499 19.0083 1.54834 18.5807 1.54834C18.1532 1.54834 17.8066 1.89499 17.8066 2.32253V3.87092C17.8066 4.29845 18.1532 4.64511 18.5807 4.64511C19.0083 4.64511 19.3549 4.29845 19.3549 3.87092V2.32253Z" fill="#336C91"></path>
</g>
<defs>
<clipPath id="clip0_16444_163719">
<rect width="24" height="25" fill="white"></rect>
</clipPath>
</defs>
</svg>