<svg width="24" height="23" viewBox="0 0 24 23" fill="none" xmlns="http://www.w3.org/2000/svg">
<path d="M23.285 12.5841C21.0649 11.5001 17.0807 13.7922 13.8766 15.6323C12.5845 16.3723 11.3645 17.0763 10.8165 17.1883C10.3244 17.2883 9.92442 17.2243 9.58841 16.9923C9.14039 16.6843 8.90838 16.1363 8.80438 15.8003C9.06439 15.7043 9.3844 15.6363 9.78442 15.6203C12.8645 15.5043 14.7966 14.3882 14.8246 12.7121C14.8366 12.0921 14.6526 11.6161 14.2846 11.2961C13.7006 10.7881 12.9045 10.8961 12.8205 10.9121C12.7925 10.9161 10.0724 11.3001 8.41636 11.0881L8.26835 11.0681C6.61628 10.8561 5.18822 10.668 3.72416 12.7441C2.52411 14.4442 0.540023 14.1882 0.46002 14.1762C0.344015 14.1602 0.22801 14.1922 0.140006 14.2722C0.0520022 14.3482 0 14.4562 0 14.5722V21.1885C0 21.3925 0.152007 21.5645 0.356015 21.5885L8.56837 22.5045C8.84438 22.5366 9.12039 22.5486 9.3924 22.5486C10.8485 22.5486 12.2885 22.1245 13.5166 21.3205L23.409 14.8442C23.801 14.5882 24.029 14.1322 23.997 13.6602C23.969 13.1882 23.701 12.7881 23.285 12.5841Z" fill="white"></path>
<path d="M7.78845 9.28389C9.60852 9.28389 11.2246 8.23184 11.9766 6.57977H15.1088C15.2128 6.57977 15.3168 6.53977 15.3928 6.46377L16.4808 5.36772L17.5689 6.46377C17.6409 6.53977 17.7449 6.57977 17.8529 6.57977H18.3169C18.4249 6.57977 18.5289 6.53977 18.6009 6.46377L19.689 5.36772L20.785 6.46377C20.857 6.53977 20.961 6.57977 21.065 6.57977H22.3211C22.4971 6.57977 22.6531 6.46777 22.7051 6.29976L23.2691 4.45168C23.3971 4.03567 23.3211 3.59965 23.0651 3.25163C22.8091 2.90362 22.4171 2.70761 21.985 2.70761H11.9766C11.2526 1.12354 9.70853 0.0714969 7.96845 0.00349405C6.7444 -0.044508 5.57235 0.403511 4.66031 1.25955C3.73627 2.12358 3.21225 3.27563 3.17625 4.50769C3.14025 5.77974 3.60827 6.97979 4.48831 7.88783C5.36434 8.78787 6.53639 9.28389 7.78845 9.28389ZM7.31643 2.86762C8.28847 2.86762 9.0805 3.66365 9.0805 4.64369C9.0805 5.61973 8.28847 6.41977 7.31643 6.41977C6.34038 6.41977 5.54835 5.61973 5.54835 4.64369C5.54835 3.66365 6.34038 2.86762 7.31643 2.86762Z" fill="white"></path>
</svg>